inDegrees=no
num_controls=7
num_derivatives=13
num_iterations=74
num_multipliers=7
num_parameters=0
num_slacks=7
num_states=26
objective=0.338889
objective_accelerations=0.029131
objective_balance=0.001101
objective_effort=0.021618
objective_height=0.285542
objective_ligament=0.001496
solver_duration=759.462287
status=Solve_Succeeded
success=true
DataType=double
version=3
OpenSimVersion=4.5
endheader
time	/jointset/ground_pelvis/pelvis_tilt/value	/jointset/ground_pelvis/pelvis_tx/value	/jointset/ground_pelvis/pelvis_ty/value	/jointset/hip_r/hip_flexion_r/value	/jointset/hip_r/hip_adduction_r/value	/jointset/hip_r/hip_rotation_r/value	/jointset/back/lumbar_extension/value	/jointset/patellofemoral_r/patellar_flexion_r/value	/jointset/knee_r/knee_flexion_r/value	/jointset/knee_r/knee_adduction_r/value	/jointset/knee_r/knee_rotation_r/value	/jointset/ankle_r/ankle_angle_r/value	/jointset/subtalar_r/subtalar_angle_r/value	/jointset/ground_pelvis/pelvis_tilt/speed	/jointset/ground_pelvis/pelvis_tx/speed	/jointset/ground_pelvis/pelvis_ty/speed	/jointset/hip_r/hip_flexion_r/speed	/jointset/hip_r/hip_adduction_r/speed	/jointset/hip_r/hip_rotation_r/speed	/jointset/back/lumbar_extension/speed	/jointset/patellofemoral_r/patellar_flexion_r/speed	/jointset/knee_r/knee_flexion_r/speed	/jointset/knee_r/knee_adduction_r/speed	/jointset/knee_r/knee_rotation_r/speed	/jointset/ankle_r/ankle_angle_r/speed	/jointset/subtalar_r/subtalar_angle_r/speed	/forceset/tau_hip_flexion_r	/forceset/tau_hip_adduction_r	/forceset/tau_hip_rotation_r	/forceset/tau_knee_flexion_r	/forceset/tau_ankle_angle_r	/forceset/tau_subtalar_angle_r	/forceset/tau_lumbar_extension	lambda_cid13_p0	lambda_cid14_p0	lambda_cid14_p1	lambda_cid14_p2	lambda_cid14_p3	lambda_cid14_p4	lambda_cid14_p5	/jointset/ground_pelvis/pelvis_tilt/accel	/jointset/ground_pelvis/pelvis_tx/accel	/jointset/ground_pelvis/pelvis_ty/accel	/jointset/hip_r/hip_flexion_r/accel	/jointset/hip_r/hip_adduction_r/accel	/jointset/hip_r/hip_rotation_r/accel	/jointset/back/lumbar_extension/accel	/jointset/patellofemoral_r/patellar_flexion_r/accel	/jointset/knee_r/knee_flexion_r/accel	/jointset/knee_r/knee_adduction_r/accel	/jointset/knee_r/knee_rotation_r/accel	/jointset/ankle_r/ankle_angle_r/accel	/jointset/subtalar_r/subtalar_angle_r/accel	gamma_cid13_p0	gamma_cid14_p0	gamma_cid14_p1	gamma_cid14_p2	gamma_cid14_p3	gamma_cid14_p4	gamma_cid14_p5
1.5	-0.03971461336889991	0.06449540326940066	0.8510346009002426	0.6447547610385256	-0.2231415986130625	-0.1466573064469873	-0.6002922597922372	0.8145030022618441	0.8145030022618399	-0.02213786318342756	0.1745191718264111	0.2957832121604843	0.1391699450998665	0.3360644034139088	0.1804333576750269	0.3666069024637185	-1.579515499131577	-0.0136786204574584	-0.1244966226170483	0.8060223373954346	-1.647397141498224	-1.647397141498597	0.4786590440997447	-0.0002343531022939071	-0.5192530860678993	-0.228142769435205	-0.1265447769793103	0.01186807784164318	0.01716755300632621	-0.2740064345852085	-0.0195369176117025	-0.007556355318264427	0.1892768515190432	-15.71864998152373	-48.94457673234945	-9.900380567364843	-0.2283979924286731	1.451573795414889	-634.441134840256	57.24745168033186	-0.03103549664209735	0.345443245173305	-0.4140172562476193	-0.6588797492710792	-0.2435365090478812	-0.6779387155554203	1.356238155066074	-1.037030972756585	-1.037030972756591	0.3251829785534452	-0.01263420558982179	-0.4820517870554762	-0.3164648164648518	8.423128204143925e-08	4.903730140750987e-08	-7.006665072143873e-07	6.815914300805816e-07	4.35769361870388e-08	1.474454902397513e-07	-6.57302083159093e-07
1.51	-0.03635586192708748	0.06631679623818947	0.8546792547616487	0.6289284210895077	-0.2232910730808509	-0.1479365496418645	-0.5921654732134232	0.7979792803386917	0.7979792803386372	-0.01733455521519592	0.1745171943002811	0.2905671448237757	0.136872275492814	0.3356375773605429	0.1838213764197149	0.3622510217195742	-1.585544502073233	-0.01621963437230554	-0.1313465991942885	0.8192235414299266	-1.657119712875155	-1.657119712875464	0.481976702500266	-0.0001680873923549357	-0.5238849837723841	-0.2313536210940511	-0.1204398210098538	0.009830967247087468	0.01723107802052076	-0.2714694790195598	-0.01692532110566135	-0.00829524746003233	0.1836126896384069	-16.53005700397027	-47.92691392230714	-9.919860119704722	-0.3660574760652641	1.227028594226921	-631.0948959961611	57.3698625499531	-0.05574828114064807	0.3319172664241801	-0.4572737917856471	-0.5437072626671198	-0.2598819145225449	-0.6875839481441737	1.285345986918016	-0.9057605473298294	-0.9057605473202459	0.3310617486883813	0.01528682583870456	-0.4424140524436	-0.3178564514590823	9.419541440405017e-08	4.717237446266724e-08	-8.71896845498143e-07	5.675000214063876e-07	6.440375921256425e-08	1.38922577850446e-07	-7.292455355621417e-07
1.52	-0.03300282717010225	0.06817135660988652	0.8582781697539561	0.6130480317718616	-0.22346605730415	-0.1492841039663818	-0.5839100177024089	0.781365154636336	0.781365154636233	-0.01249886976737926	0.1745156854045584	0.2853070274519622	0.1345436051470003	0.3349210664489116	0.187066838256675	0.3574591286439245	-1.590325372857061	-0.01878057155993131	-0.1381588485449631	0.8317561238355169	-1.665477897338823	-1.665477897339068	0.4851345400162612	-0.0001406270202974408	-0.5280630930888124	-0.2343429171874791	-0.1143348650403925	0.007793856652535533	0.01729460303470923	-0.2689325234539107	-0.0143137245996188	-0.009034139601793728	0.1779485277577743	-17.33528586140863	-46.91233184111908	-9.940406236934466	-0.5029447934263228	0.9979373240868499	-627.789100682242	57.52717880675926	-0.08897246829530543	0.3169318636278117	-0.5012197225486972	-0.409253317705406	-0.2475211636036221	-0.6703932702423157	1.222513829285694	-0.764153590103832	-0.7641535901038312	0.2932188016482251	-0.02039527316608758	-0.3912941094440609	-0.2721537033812089	1.014438021017199e-07	4.579932224001633e-08	-1.00494676710581e-06	4.588118449094398e-07	8.069806482303099e-08	1.3179002393274e-07	-7.741206120310737e-07
1.53	-0.02965835147661799	0.07005759440296233	0.8618270315846125	0.5971261198817416	-0.2236665904237597	-0.1507001463523137	-0.5755326974102219	0.7646743174913179	0.7646743174912836	-0.007633051754746923	0.1745145021383104	0.2800074518123946	0.1321864055239508	0.3339285543077218	0.1901501940176695	0.3522441997894328	-1.5938382913843	-0.02132170586840301	-0.1450506991521104	0.8435872200331974	-1.672447040078854	-1.672447040078699	0.487983003877189	-9.926344597773186e-05	-0.5317712427110609	-0.2370490292476707	-0.1083293361093276	0.005827929308358306	0.01732112920207537	-0.26623881552647	-0.01202089404443292	-0.009827637770031252	0.1723429736783635	-18.13337451113843	-46.01628674044598	-10.00773631598284	-0.629730820800037	0.8917842352781854	-624.6205366904393	57.60152434050063	-0.1112138818484674	0.299478145763697	-0.5419605001544801	-0.2894992326443914	-0.2568040083178211	-0.6986261453411675	1.145300329594378	-0.6269425065510784	-0.6269425064909535	0.2736001584077141	0.01594561372944674	-0.3484125111094644	-0.2627885014970668	1.058067110928896e-07	4.49488869096941e-08	-1.097429995995133e-06	3.558646026008161e-07	9.217657067999793e-08	1.261347258911081e-07	-7.902355390700069e-07
1.54	-0.02632516556351106	0.07197375389633358	0.8653216779200732	0.5811756411838668	-0.2238924137752219	-0.1521851162821964	-0.5670406875931413	0.7479210593407768	0.747921059340822	-0.002740161107487975	0.1745136411960037	0.2746732272521056	0.1298035550714679	0.3326631103738339	0.1930511783157645	0.3466160296047491	-1.596038734407989	-0.02383861793083089	-0.1519443573348672	0.8546940288142925	-1.677962098442817	-1.677962098442261	0.4905490669418217	-7.616223172013986e-05	-0.5349928772330765	-0.2394730830742184	-0.1023238071782552	0.003862001964181758	0.01734765536947193	-0.2635451075990249	-0.00972806348924634	-0.01062113593826828	0.1667374195989588	-18.92363909962996	-45.12248131979032	-10.07652227230543	-0.7550696257181631	0.7808248814332104	-621.4823321198353	57.70235722198581	-0.1435588268350263	0.2804575710479871	-0.5838679885870877	-0.1467582169952892	-0.2426767143948747	-0.6707547853642203	1.077656345968535	-0.4733367148900756	-0.4733367148900766	0.2367386423892382	-0.02404774517849264	-0.2939910893974005	-0.2157420566524347	1.181667102825371e-07	4.373135948064548e-08	-1.300597772701613e-06	1.703200463997474e-07	1.179044909200563e-07	1.027715264417187e-07	-8.268177550614281e-07
1.55	-0.02300600676327565	0.07391799769766728	0.8687580573700474	0.5652096777420612	-0.2241431857424706	-0.1537398950488621	-0.5584414993367733	0.7311198239412178	0.7311198239412848	0.002176356725168677	0.1745135562912695	0.2693092495401533	0.1273980223844575	0.331118123706634	0.1957653406511247	0.3405976917429402	-1.596932753040041	-0.02631955375107834	-0.1589516763379569	0.8650008970600093	-1.68203677571252	-1.682036775712269	0.4927653350263844	2.904100502268683e-05	-0.5377226951087858	-0.2416027983059304	-0.09597198369999473	0.001566338359978435	0.01738237635645114	-0.2615891230389367	-0.00660002067596864	-0.01149051607455593	0.1609014612033686	-19.70573241400216	-43.98138829698332	-10.15256911631272	-0.8591432464393352	0.4949768623656666	-618.5819488185637	57.90284125695606	-0.1675397503430243	0.2620960629399761	-0.6201350437582054	-0.02753818825728505	-0.2515723964643671	-0.7066774426930553	0.9857932538640827	-0.3373327149666076	-0.3373327150123865	0.2154259481958756	0.02319652702783114	-0.2504047458591658	-0.2073068114249026	1.39740748179126e-07	4.209087811175996e-08	-1.63129339798003e-06	-1.103909801556549e-07	1.600502146884583e-07	5.900574493556642e-08	-8.869818474546277e-07
1.56	-0.01970381206245064	0.07588842322198637	0.8721323897696475	0.5492414112135459	-0.2244189211440461	-0.15536293840254	-0.5497435241599502	0.714285281872577	0.7142852818726527	0.007115308250027316	0.1745136018526773	0.2639203881276029	0.1249720484341314	0.329270290492219	0.1982875229128403	0.3342066195299302	-1.596499351749982	-0.0288313047963188	-0.1655972747375132	0.8744514129053689	-1.684623432260471	-1.684623432260525	0.495035805379186	-5.006900114699056e-05	-0.5399696173525526	-0.2435613357374127	-0.08962016022171979	-0.0007293252442101569	0.01741709734333658	-0.2596331384788512	-0.003471977862685223	-0.01235989621081653	0.1550655028077884	-20.47957092271704	-42.84166061074257	-10.23058554175482	-0.9609263506913407	0.20938192590733	-615.6977875163233	58.10968580726266	-0.2041281362781057	0.2420615563191357	-0.6584148588272759	0.1187257674268221	-0.2488397593934789	-0.5984106646575521	0.9063858658970594	-0.1757325705397384	-0.1757325705397267	0.2475790960370114	-0.06091039376098403	-0.1974119630088107	-0.1815064966064695	1.556247043991635e-07	2.458233125106741e-08	-2.031389818783996e-06	-7.539345007686363e-07	2.263771139230814e-07	-6.146783631225085e-08	-8.068620917737999e-07
1.57	-0.01642166262782686	0.07788299941770144	0.8754409682097679	0.5332846013952202	-0.2247188219411231	-0.1570546947989489	-0.5409553213597283	0.6974323465586794	0.69743234655867	0.01207261435870827	0.1745138137757931	0.2585118416556975	0.1225291659866006	0.3271200810161735	0.2005850791333735	0.3274520528187835	-1.594629905830183	-0.03114034286988567	-0.1727106199946963	0.8830291314940154	-1.685693680567491	-1.685693680567323	0.4964022733836577	7.838346533461471e-05	-0.5416543569075724	-0.244969390662047	-0.08352701603288162	-0.002655259560590373	0.01724434677983489	-0.2571984928239061	-0.001142338331824998	-0.01316556287889337	0.1493955662719436	-21.24543092314531	-41.96784074899542	-10.31631223192318	-1.074248114427001	0.1566121780570232	-612.9837473942965	58.2286116335981	-0.2263799295391289	0.21728279500674	-0.6926104077808896	0.2559621889750076	-0.2213286511222469	-0.7614325313122867	0.8094625084714029	-0.0322123572813844	-0.03221235724806601	0.07719416026753974	0.04710587375365395	-0.1410674503186234	-0.1143305649248114	1.64396058523512e-07	-1.276129747438375e-08	-2.5182372339949e-06	-1.851018638953587e-06	3.229304824904806e-07	-2.778261672371484e-07	-5.513875260004396e-07
1.58	-0.01316219780322002	0.07989928720363888	0.8786802744166725	0.5173534676730365	-0.225041691682891	-0.1588163118629436	-0.5320861418429952	0.6805768004824064	0.6805768004823264	0.01704278784894762	0.1745147867849584	0.2530890352885278	0.1200734278749172	0.3247333684892825	0.2026298409573179	0.3203521728867557	-1.591364132521641	-0.03342509373480989	-0.1795694082544243	0.8906467562075899	-1.68514558473444	-1.685145584734049	0.4976092816927404	0.0001021482078526769	-0.5428215964053926	-0.246132468567996	-0.07743387184402872	-0.004581193876974378	0.0170715962163957	-0.2547638471689508	0.001187301199035718	-0.01397122954697588	0.1437256297361111	-21.99810718828374	-41.09780882189601	-10.4080293683994	-1.180528760913672	0.1246866317132525	-610.315873541664	58.27406872086781	-0.2514287464473332	0.1915026770014832	-0.7274775030035026	0.397991245175474	-0.2439823176649621	-0.5474992651665325	0.7143670908826093	0.1479362574745764	0.1479362574745829	0.2156871569592487	-0.08184793855369416	-0.09391195156879804	-0.1325110928694022	1.717808543851144e-07	-3.233599498449917e-08	-2.800781466699145e-06	-2.500620690688581e-06	3.788905653240517e-07	-4.175404928529623e-07	-3.661164248693806e-07
1.59	-0.00992796803310912	0.08193474757141975	0.8818469138569894	0.5014622293605155	-0.2253871494650781	-0.1606455468792171	-0.5231457009666062	0.6637349496260548	0.6637349496260341	0.02202390394170264	0.1745157729616913	0.2476572415278058	0.117607474055067	0.3220636103827612	0.2044184753698949	0.3129263355197096	-1.586640242458631	-0.03565420978930595	-0.186247189567272	0.8972586430354956	-1.682951798746575	-1.682951798746178	0.4985740420588861	9.532897347984653e-05	-0.5434474184437548	-0.2470089332315525	-0.07090868135749746	-0.006651922448434604	0.01672131146208891	-0.2531821943603338	0.004579648403110399	-0.01475980699601583	0.1377830264624118	-22.7307418644326	-39.90051012677274	-10.45029149852824	-1.277254261813505	-0.1760037616577261	-607.9174919337737	58.49747547838458	-0.2820770126080116	0.1660562948479432	-0.7576387045294802	0.5460859910803804	-0.2112388115878243	-0.723518380907844	0.6071830734048912	0.295981825096239	0.2959818250970744	0.0303490432954942	0.03942460977824504	-0.03331226526593705	-0.05856210473709397	1.772838926044183e-07	-2.779571441666027e-08	-2.806057094572942e-06	-2.542925625098668e-06	3.797597603760021e-07	-4.5323795412074e-07	-2.761214543242966e-07
